<?xml version="1.0" encoding="UTF-8"?>
<!DOCTYPE svg PUBLIC "-//W3C//DTD SVG 1.1//EN" "http://www.w3.org/Graphics/SVG/1.1/DTD/svg11.dtd">
<svg xmlns="http://www.w3.org/2000/svg" version="1.1" width="415px" height="264px" style="shape-rendering:geometricPrecision; text-rendering:geometricPrecision; image-rendering:optimizeQuality; fill-rule:evenodd; clip-rule:evenodd" xmlns:xlink="http://www.w3.org/1999/xlink">
<g><path style="opacity:1" fill="#0b1f56" d="M 269.5,165.5 C 272.066,165.656 274.566,165.322 277,164.5C 282.385,160.111 287.385,155.444 292,150.5C 292.333,146.5 292.667,142.5 293,138.5C 293.5,138 294,137.5 294.5,137C 291.652,133.567 290.985,129.734 292.5,125.5C 293.396,126.506 294.062,126.506 294.5,125.5C 292.259,123.548 290.259,121.382 288.5,119C 285.398,117.237 282.398,115.404 279.5,113.5C 268.04,106.681 256.706,106.848 245.5,114C 240.769,118.189 236.769,122.855 233.5,128C 216.449,129.217 199.449,130.717 182.5,132.5C 181.522,132.023 180.689,131.357 180,130.5C 178.754,126.079 176.754,122.079 174,118.5C 182.526,86.4061 191.693,54.4061 201.5,22.5C 237.638,21.0456 267.472,34.0456 291,61.5C 294.343,66.197 297.677,70.8637 301,75.5C 336.449,71.3942 364.116,84.0608 384,113.5C 403.767,153.305 397.6,188.472 365.5,219C 350.599,230.746 333.599,236.746 314.5,237C 293.5,237.667 272.5,237.667 251.5,237C 255.903,214.204 261.069,191.37 267,168.5C 267.236,166.881 268.069,165.881 269.5,165.5 Z"/></g>
<g><path style="opacity:1" fill="#0b1f56" d="M 129.5,119.5 C 125.337,120.376 123.17,123.043 123,127.5C 122.333,134.5 122.333,141.5 123,148.5C 124.039,149.71 125.206,150.71 126.5,151.5C 136.423,165.304 149.423,169.138 165.5,163C 169.158,159.339 173.491,157.005 178.5,156C 198.153,154.122 217.82,152.789 237.5,152C 240.06,155.051 242.393,158.218 244.5,161.5C 238.667,186.167 232.833,210.833 227,235.5C 226.311,236.357 225.478,237.023 224.5,237.5C 202.06,237.114 179.56,237.114 157,237.5C 137.5,237.333 118,237.167 98.5,237C 57.678,233.836 31.5113,212.669 20,173.5C 13.6256,131.414 29.1256,100.581 66.5,81C 81.6669,74.9333 97.3335,72.9333 113.5,75C 127.75,51.2572 148.083,35.0905 174.5,26.5C 174.833,27 175.167,27.5 175.5,28C 167.263,54.784 159.263,81.6173 151.5,108.5C 142.53,109.141 135.197,112.808 129.5,119.5 Z"/></g>
<g><path style="opacity:0.522" fill="#0b1f47" d="M 129.5,119.5 C 122.854,129.608 121.854,140.274 126.5,151.5C 125.206,150.71 124.039,149.71 123,148.5C 122.333,141.5 122.333,134.5 123,127.5C 123.17,123.043 125.337,120.376 129.5,119.5 Z"/></g>
<g><path style="opacity:1" fill="#0c204a" d="M 279.5,113.5 C 282.398,115.404 285.398,117.237 288.5,119C 290.259,121.382 292.259,123.548 294.5,125.5C 294.062,126.506 293.396,126.506 292.5,125.5C 290.985,129.734 291.652,133.567 294.5,137C 294,137.5 293.5,138 293,138.5C 292.667,142.5 292.333,146.5 292,150.5C 287.385,155.444 282.385,160.111 277,164.5C 274.566,165.322 272.066,165.656 269.5,165.5C 290.489,156.38 295.989,141.38 286,120.5C 283.628,118.297 281.461,115.963 279.5,113.5 Z"/></g>
</svg>
